<svg id="svg" version="1.1" xmlns="http://www.w3.org/2000/svg" xmlns:xlink="http://www.w3.org/1999/xlink" width="400" height="95.02465262214254" viewBox="0, 0, 400,95.02465262214254"><g id="svgg"><path id="path0" d="M266.333 20.637 C 261.694 21.919,258.665 24.410,256.665 28.588 C 253.611 34.967,255.709 43.635,261.180 47.236 C 261.539 47.473,262.115 47.850,262.458 48.075 C 267.517 51.378,276.114 50.492,280.709 46.194 C 282.019 44.969,282.022 44.930,280.893 43.889 C 280.356 43.394,279.415 42.491,278.801 41.883 L 277.685 40.778 276.624 41.764 C 274.341 43.884,271.645 44.598,268.462 43.923 C 260.704 42.279,259.543 30.645,266.771 26.980 L 268.210 26.250 270.563 26.254 C 273.644 26.260,275.122 26.849,276.932 28.788 L 277.614 29.519 278.189 28.968 C 280.988 26.285,281.836 25.429,281.796 25.326 C 281.347 24.173,278.266 22.001,275.736 21.054 L 274.083 20.435 270.750 20.386 C 267.952 20.346,267.243 20.386,266.333 20.637 M302.667 20.648 C 296.473 22.339,292.469 26.820,291.556 33.083 C 291.468 33.682,291.490 36.904,291.585 37.417 C 293.365 47.038,302.655 52.455,311.880 49.250 C 326.072 44.319,325.119 24.397,310.507 20.572 C 309.127 20.210,304.090 20.260,302.667 20.648 M136.207 35.125 L 136.250 49.583 139.290 49.629 L 142.330 49.674 142.373 41.325 L 142.417 32.976 143.495 34.863 C 144.473 36.575,145.230 37.860,145.789 38.754 C 146.086 39.230,146.656 40.200,148.648 43.623 L 150.417 46.662 151.785 46.664 C 153.301 46.667,153.451 46.584,154.112 45.379 C 154.973 43.810,156.071 41.879,157.502 39.417 C 158.355 37.950,159.386 36.150,159.793 35.417 C 160.201 34.683,160.695 33.821,160.892 33.500 L 161.250 32.917 161.333 41.250 L 161.417 49.583 164.500 49.583 L 167.583 49.583 167.638 47.833 C 167.669 46.871,167.641 40.365,167.576 33.375 L 167.460 20.667 164.772 20.673 L 162.083 20.680 160.874 22.798 C 160.209 23.963,158.721 26.567,157.567 28.583 C 156.414 30.600,155.090 32.925,154.625 33.750 C 154.160 34.575,153.371 35.951,152.871 36.808 L 151.962 38.365 151.554 37.641 C 151.330 37.243,151.081 36.804,151.001 36.667 C 150.921 36.529,150.203 35.292,149.405 33.917 C 148.607 32.542,147.822 31.192,147.660 30.917 C 147.134 30.024,144.475 25.448,143.786 24.250 C 143.417 23.608,142.944 22.821,142.736 22.500 C 142.528 22.179,142.226 21.635,142.065 21.292 L 141.772 20.667 138.968 20.667 L 136.165 20.667 136.207 35.125 M190.363 21.122 C 190.151 21.687,189.091 24.172,188.672 25.083 C 188.503 25.450,187.941 26.762,187.423 28.000 C 186.905 29.238,186.376 30.475,186.247 30.750 C 185.864 31.572,184.945 33.707,183.344 37.500 C 182.512 39.471,181.753 41.219,181.658 41.384 C 181.426 41.789,179.777 45.653,178.733 48.240 C 178.115 49.771,177.904 49.667,181.628 49.667 L 184.923 49.667 185.476 48.292 C 185.781 47.535,186.337 46.148,186.711 45.208 L 187.393 43.500 193.760 43.500 C 199.679 43.500,200.134 43.521,200.219 43.792 C 200.333 44.152,201.456 46.960,201.669 47.417 C 201.755 47.600,201.982 48.181,202.174 48.708 L 202.524 49.667 205.929 49.667 C 208.887 49.667,209.333 49.633,209.333 49.409 C 209.333 49.164,207.866 45.645,206.800 43.333 C 206.525 42.737,206.154 41.881,205.975 41.430 C 205.796 40.979,205.511 40.304,205.343 39.930 C 205.174 39.556,204.759 38.575,204.420 37.750 C 204.080 36.925,203.558 35.725,203.258 35.083 C 202.958 34.442,202.540 33.467,202.329 32.917 C 202.118 32.367,201.884 31.836,201.809 31.737 C 201.734 31.638,201.490 31.075,201.267 30.487 C 200.830 29.337,200.242 27.969,199.555 26.500 C 199.319 25.996,198.666 24.496,198.104 23.167 L 197.082 20.750 193.809 20.705 L 190.535 20.660 190.363 21.122 M220.000 35.159 L 220.000 49.674 223.292 49.629 L 226.583 49.583 226.628 45.625 L 226.673 41.667 229.496 41.667 C 231.547 41.667,232.370 41.724,232.504 41.875 C 232.604 41.990,233.812 43.790,235.188 45.875 L 237.689 49.667 241.178 49.667 C 243.428 49.667,244.667 49.607,244.667 49.497 C 244.667 49.342,243.538 47.524,243.324 47.333 C 243.272 47.288,242.716 46.462,242.089 45.500 C 241.462 44.538,240.903 43.712,240.848 43.667 C 240.702 43.547,238.667 40.417,238.667 40.313 C 238.667 40.265,239.023 40.049,239.458 39.833 C 242.118 38.516,243.934 35.427,244.117 31.913 C 244.404 26.396,241.803 22.754,236.483 21.223 L 234.917 20.772 227.458 20.708 L 220.000 20.645 220.000 35.159 M334.374 35.125 L 334.417 49.583 337.708 49.629 L 341.000 49.674 341.000 41.065 L 341.000 32.456 341.701 33.353 C 342.087 33.846,343.385 35.487,344.586 37.000 C 347.101 40.166,349.922 43.732,352.667 47.215 L 354.583 49.647 357.292 49.657 L 360.000 49.667 360.000 35.167 L 360.000 20.667 356.750 20.667 L 353.500 20.667 353.496 29.292 C 353.493 37.492,353.478 37.899,353.205 37.556 C 353.046 37.358,352.043 36.080,350.975 34.715 C 349.908 33.350,348.875 32.050,348.681 31.825 C 348.487 31.600,347.785 30.719,347.122 29.866 C 346.459 29.014,345.542 27.845,345.083 27.269 C 344.625 26.693,343.350 25.077,342.250 23.678 C 341.150 22.280,340.167 21.030,340.065 20.901 C 339.919 20.717,339.289 20.667,337.106 20.667 L 334.331 20.667 334.374 35.125 M374.243 20.875 C 374.200 20.990,374.183 27.496,374.207 35.333 L 374.250 49.583 377.542 49.629 L 380.833 49.674 380.833 35.170 L 380.833 20.667 377.578 20.667 C 375.127 20.667,374.303 20.718,374.243 20.875 M308.917 26.341 C 316.243 28.231,317.561 39.114,310.940 43.047 C 305.959 46.007,299.568 43.066,298.394 37.273 C 297.006 30.422,302.523 24.690,308.917 26.341 M234.520 26.714 C 237.136 27.895,238.161 30.386,237.148 33.096 C 236.273 35.432,234.878 36.000,230.007 36.000 L 226.667 36.000 226.667 31.150 L 226.667 26.301 230.292 26.371 C 233.177 26.427,234.040 26.497,234.520 26.714 M194.082 28.458 C 194.243 28.894,194.470 29.475,194.585 29.750 C 194.700 30.025,195.035 30.850,195.330 31.583 C 197.311 36.512,197.833 37.851,197.833 37.999 C 197.833 38.107,196.377 38.167,193.750 38.167 C 190.997 38.167,189.667 38.109,189.667 37.991 C 189.667 37.894,189.804 37.500,189.972 37.116 C 190.140 36.731,191.059 34.448,192.014 32.043 C 192.969 29.637,193.759 27.669,193.769 27.668 C 193.779 27.667,193.920 28.023,194.082 28.458 M143.868 57.375 C 143.774 57.490,143.547 57.958,143.365 58.417 C 143.080 59.136,141.978 61.657,141.253 63.250 C 141.033 63.734,140.351 65.276,137.714 71.250 C 137.026 72.808,136.321 74.442,136.147 74.881 C 135.972 75.320,135.648 76.033,135.427 76.465 C 135.205 76.897,134.675 78.075,134.250 79.083 C 133.825 80.092,133.369 81.134,133.238 81.401 C 133.107 81.667,133.000 81.911,133.000 81.942 C 133.000 82.328,135.987 81.946,136.128 81.542 C 136.217 81.290,136.835 79.826,137.501 78.290 L 138.713 75.496 145.299 75.540 L 151.884 75.583 152.328 76.667 C 152.573 77.262,152.967 78.162,153.205 78.667 C 153.442 79.171,153.852 80.108,154.114 80.750 L 154.592 81.917 156.046 81.965 C 156.846 81.991,157.500 81.969,157.500 81.916 C 157.500 81.863,157.280 81.348,157.010 80.772 C 156.741 80.197,156.374 79.356,156.195 78.904 C 155.675 77.592,154.032 73.871,153.320 72.391 C 152.961 71.644,152.667 70.992,152.667 70.943 C 152.667 70.825,150.385 65.630,149.603 63.966 C 149.272 63.260,149.000 62.622,148.999 62.549 C 148.998 62.476,148.879 62.192,148.734 61.917 C 148.588 61.642,148.334 61.079,148.169 60.667 C 148.004 60.254,147.673 59.490,147.434 58.968 C 147.195 58.447,146.926 57.828,146.837 57.593 C 146.651 57.105,144.239 56.927,143.868 57.375 M168.167 69.583 L 168.167 82.000 169.500 82.000 L 170.833 82.000 170.833 69.583 L 170.833 57.167 169.500 57.167 L 168.167 57.167 168.167 69.583 M201.000 69.583 L 201.000 82.000 209.000 82.000 L 217.000 82.000 217.000 80.833 L 217.000 79.667 210.333 79.667 L 203.667 79.667 203.667 68.417 L 203.667 57.167 202.333 57.167 L 201.000 57.167 201.000 69.583 M234.863 57.626 C 234.742 57.878,234.192 59.133,233.641 60.417 C 232.594 62.854,232.511 63.044,231.284 65.750 C 230.032 68.513,229.667 69.340,229.667 69.410 C 229.667 69.447,229.442 69.963,229.167 70.557 C 228.892 71.151,228.667 71.674,228.667 71.720 C 228.667 71.765,228.334 72.515,227.927 73.386 C 227.520 74.257,226.874 75.708,226.491 76.610 C 226.109 77.512,225.591 78.700,225.342 79.250 C 225.092 79.800,224.788 80.512,224.667 80.833 C 224.546 81.154,224.384 81.488,224.307 81.575 C 223.998 81.924,224.227 82.000,225.592 82.000 L 227.017 82.000 227.273 81.375 C 227.413 81.031,227.707 80.375,227.925 79.917 C 228.144 79.458,228.660 78.296,229.072 77.333 L 229.821 75.583 236.413 75.540 L 243.005 75.496 243.162 75.873 C 243.964 77.801,245.360 81.024,245.582 81.458 L 245.858 82.000 247.262 82.000 C 248.035 82.000,248.667 81.959,248.667 81.909 C 248.667 81.859,248.404 81.257,248.083 80.572 C 247.762 79.887,247.500 79.282,247.500 79.229 C 247.500 79.128,244.969 73.424,244.242 71.885 C 244.017 71.410,243.833 70.981,243.833 70.932 C 243.833 70.844,243.645 70.419,242.230 67.316 C 241.828 66.435,241.500 65.671,241.500 65.617 C 241.500 65.564,241.200 64.882,240.833 64.103 C 240.467 63.324,240.167 62.645,240.167 62.594 C 240.167 62.543,239.919 61.957,239.616 61.292 C 239.314 60.627,238.770 59.428,238.408 58.627 L 237.750 57.170 236.417 57.170 C 235.128 57.169,235.076 57.184,234.863 57.626 M259.167 69.573 L 259.167 82.000 265.958 81.997 C 273.250 81.994,274.034 81.925,275.846 81.122 C 280.595 79.019,280.590 71.429,275.839 69.586 C 274.821 69.190,274.821 69.220,275.847 68.500 C 279.240 66.117,278.806 60.190,275.098 58.298 C 273.055 57.256,273.157 57.268,265.875 57.205 L 259.167 57.146 259.167 69.573 M273.069 60.250 C 276.428 61.948,276.194 66.445,272.676 67.779 C 272.034 68.022,271.150 68.076,266.958 68.128 L 262.000 68.189 262.000 63.831 L 262.000 59.474 266.875 59.528 L 271.750 59.583 273.069 60.250 M146.000 62.000 C 146.937 64.119,147.449 65.297,148.677 68.167 C 149.246 69.496,149.961 71.165,150.267 71.875 L 150.822 73.167 145.328 73.167 C 142.279 73.167,139.833 73.101,139.833 73.020 C 139.833 72.940,140.014 72.471,140.234 71.978 C 140.455 71.486,141.026 70.146,141.504 69.000 C 141.981 67.854,142.560 66.504,142.789 66.000 C 143.314 64.843,144.147 62.915,144.752 61.456 C 145.008 60.837,145.237 60.349,145.259 60.373 C 145.281 60.397,145.615 61.129,146.000 62.000 M237.389 62.599 C 237.883 63.790,238.370 64.911,238.471 65.090 C 238.573 65.270,239.080 66.429,239.599 67.667 C 240.118 68.904,240.721 70.313,240.938 70.797 C 241.155 71.281,241.333 71.732,241.333 71.799 C 241.333 71.866,241.483 72.202,241.667 72.544 L 242.001 73.167 236.415 73.167 L 230.829 73.167 231.063 72.625 C 231.191 72.327,231.839 70.846,232.502 69.333 C 233.165 67.821,234.025 65.833,234.414 64.917 C 235.847 61.539,236.386 60.330,236.437 60.382 C 236.466 60.411,236.895 61.409,237.389 62.599 M273.474 71.047 C 277.560 72.259,277.898 77.219,274.023 79.122 L 273.083 79.583 267.542 79.637 L 262.000 79.691 262.000 75.165 L 262.000 70.638 267.292 70.711 C 271.472 70.768,272.770 70.839,273.474 71.047 " stroke="none" fill="#a4acac" fill-rule="evenodd"></path><path id="path1" d="M109.167 9.996 C 108.846 10.158,107.871 10.532,107.000 10.827 C 106.129 11.122,105.342 11.421,105.250 11.493 C 105.158 11.564,104.558 11.792,103.917 11.998 C 103.275 12.205,102.679 12.440,102.592 12.521 C 102.505 12.601,102.317 12.667,102.175 12.668 C 102.033 12.668,101.718 12.773,101.474 12.899 C 101.231 13.026,100.744 13.223,100.391 13.337 C 100.039 13.450,99.675 13.601,99.583 13.672 C 99.492 13.743,99.083 13.890,98.674 13.999 C 97.669 14.268,96.333 14.863,96.333 15.041 C 96.333 15.121,96.247 15.133,96.140 15.067 C 96.009 14.986,95.977 15.060,96.040 15.301 C 96.093 15.503,96.032 15.737,95.899 15.848 C 95.771 15.954,95.667 16.114,95.667 16.203 C 95.667 16.338,99.446 20.953,100.113 21.633 C 100.230 21.752,100.421 21.977,100.538 22.133 C 101.033 22.794,101.232 22.842,101.978 22.473 C 103.807 21.568,106.416 22.227,107.707 23.920 C 110.222 27.217,108.039 32.167,104.071 32.167 L 103.369 32.167 102.497 35.792 C 99.937 46.439,100.154 45.129,100.874 45.583 C 103.425 47.194,103.411 51.087,100.847 52.912 C 99.627 53.781,96.797 53.639,95.915 52.665 C 95.631 52.351,95.605 52.358,94.667 53.047 C 93.480 53.919,85.596 59.889,85.352 60.101 C 85.317 60.131,85.463 60.553,85.678 61.037 C 86.597 63.111,85.994 66.038,84.283 67.806 C 80.478 71.737,73.833 68.889,73.833 63.328 L 73.833 62.375 71.792 61.852 C 68.588 61.033,64.353 59.912,63.181 59.573 C 62.126 59.268,62.109 59.268,61.931 59.590 C 61.604 60.180,60.186 61.489,59.755 61.597 C 59.263 61.721,59.270 61.633,59.583 63.667 C 59.999 66.362,59.794 68.839,58.853 72.500 C 58.219 74.966,57.337 78.288,56.752 80.417 C 55.750 84.063,55.430 86.633,55.915 87.136 C 55.973 87.195,58.621 86.276,59.401 85.926 C 59.685 85.798,60.404 85.532,61.000 85.333 C 61.596 85.135,62.383 84.839,62.750 84.676 C 63.117 84.513,63.829 84.247,64.333 84.084 C 64.837 83.922,65.325 83.734,65.417 83.666 C 65.508 83.599,65.883 83.453,66.250 83.343 C 66.617 83.233,67.067 83.078,67.250 82.997 C 68.687 82.368,69.208 82.170,70.083 81.921 C 70.633 81.765,71.196 81.544,71.333 81.430 C 71.471 81.316,72.258 81.014,73.083 80.758 C 73.908 80.503,74.668 80.226,74.772 80.143 C 74.875 80.060,75.588 79.778,76.355 79.516 C 77.636 79.079,78.168 78.877,79.083 78.481 C 79.267 78.401,80.167 78.070,81.083 77.745 C 82.000 77.419,83.004 77.035,83.315 76.891 C 83.626 76.747,84.628 76.377,85.542 76.069 C 86.457 75.761,87.290 75.442,87.394 75.360 C 87.498 75.278,88.221 75.005,89.000 74.753 C 89.779 74.501,90.567 74.203,90.750 74.091 C 90.933 73.978,91.571 73.729,92.167 73.536 C 93.355 73.152,96.127 72.115,96.917 71.758 C 97.192 71.633,97.754 71.435,98.167 71.316 C 98.579 71.197,99.142 70.977,99.417 70.827 C 99.692 70.677,100.442 70.387,101.083 70.184 C 101.725 69.980,102.441 69.710,102.674 69.584 C 102.907 69.458,103.845 69.095,104.757 68.778 C 106.994 67.999,110.506 66.702,110.917 66.502 C 111.100 66.413,111.888 66.110,112.667 65.830 C 113.446 65.550,114.308 65.218,114.583 65.092 C 114.858 64.966,115.796 64.618,116.667 64.318 C 117.537 64.018,118.400 63.683,118.583 63.573 C 118.767 63.463,119.581 63.160,120.394 62.901 C 122.093 62.358,122.139 62.297,121.757 61.081 C 120.935 58.471,121.610 57.367,124.708 56.253 C 127.970 55.080,128.021 53.302,124.898 49.629 C 123.094 47.507,123.136 47.555,121.057 45.147 C 118.858 42.600,118.292 40.910,119.016 39.053 C 119.117 38.794,119.240 37.820,119.290 36.887 C 119.459 33.709,118.567 31.753,112.913 22.917 C 110.626 19.343,110.497 19.076,110.968 18.927 C 113.332 18.176,114.219 12.467,112.152 11.305 C 111.793 11.103,111.500 10.873,111.500 10.793 C 111.500 10.713,111.425 10.693,111.333 10.750 C 111.242 10.807,111.167 10.774,111.167 10.677 C 111.167 10.579,111.054 10.500,110.917 10.500 C 110.779 10.500,110.667 10.430,110.667 10.345 C 110.667 10.259,110.498 10.136,110.292 10.072 C 110.085 10.008,109.879 9.898,109.833 9.827 C 109.787 9.757,109.487 9.833,109.167 9.996 M89.629 17.407 C 89.393 17.530,88.910 17.721,88.558 17.831 C 87.820 18.063,85.983 18.754,85.250 19.076 C 84.975 19.197,84.563 19.348,84.333 19.411 C 83.939 19.520,81.773 20.347,80.194 20.991 L 79.472 21.286 79.903 21.751 C 80.139 22.006,80.333 22.265,80.333 22.326 C 80.333 22.387,80.502 22.618,80.708 22.839 C 80.915 23.060,81.683 23.958,82.417 24.834 C 83.150 25.711,84.636 27.485,85.719 28.777 L 87.687 31.127 88.512 30.813 C 88.966 30.641,89.486 30.500,89.668 30.500 C 89.851 30.500,90.000 30.389,90.000 30.253 C 90.000 30.118,90.303 27.335,90.673 24.070 C 91.327 18.299,91.359 17.528,90.947 17.475 C 90.839 17.461,90.675 17.440,90.583 17.429 C 90.492 17.417,90.336 17.357,90.238 17.296 C 90.140 17.234,89.866 17.284,89.629 17.407 M93.556 17.634 C 93.174 17.790,92.826 17.954,92.782 18.000 C 92.677 18.111,92.573 18.896,92.077 23.333 C 91.846 25.396,91.629 27.239,91.595 27.428 C 91.561 27.618,91.482 28.293,91.420 28.928 C 91.357 29.564,91.271 30.212,91.227 30.369 C 91.171 30.572,91.276 30.688,91.590 30.767 C 91.833 30.828,92.376 31.140,92.796 31.461 C 93.405 31.925,93.613 32.006,93.822 31.858 C 94.102 31.659,95.393 30.847,97.667 29.440 L 99.083 28.564 99.100 27.201 C 99.113 26.033,99.189 25.691,99.631 24.800 L 100.146 23.761 99.364 22.843 C 98.935 22.338,98.032 21.285,97.358 20.504 C 96.684 19.723,95.793 18.690,95.378 18.208 C 94.542 17.238,94.536 17.236,93.556 17.634 M69.667 24.933 C 69.071 25.158,68.433 25.412,68.250 25.498 C 68.067 25.584,67.504 25.781,67.000 25.936 C 66.496 26.091,66.008 26.274,65.917 26.344 C 65.825 26.414,64.856 26.779,63.763 27.156 C 62.670 27.532,61.695 27.906,61.596 27.986 C 61.497 28.066,60.839 28.312,60.132 28.534 L 58.848 28.936 59.084 29.390 C 59.213 29.640,59.240 29.795,59.143 29.735 C 59.031 29.666,59.036 29.756,59.158 29.985 C 59.264 30.182,59.414 30.303,59.491 30.255 C 59.569 30.207,59.959 30.128,60.358 30.079 C 60.757 30.031,61.725 29.881,62.509 29.746 C 63.293 29.611,64.155 29.469,64.426 29.430 C 64.696 29.390,65.367 29.274,65.917 29.170 C 66.467 29.067,67.067 28.960,67.250 28.933 C 69.160 28.646,69.551 28.493,69.396 28.089 C 69.254 27.719,70.163 26.196,70.738 25.841 C 71.284 25.504,71.425 25.090,71.124 24.708 C 70.919 24.449,70.967 24.441,69.667 24.933 M67.750 30.264 C 67.108 30.392,65.833 30.609,64.917 30.747 C 64.000 30.885,63.063 31.039,62.833 31.088 C 62.604 31.138,62.229 31.210,62.000 31.248 C 61.771 31.287,61.115 31.410,60.542 31.522 L 59.500 31.726 59.498 32.321 C 59.497 32.649,59.378 33.329,59.234 33.833 C 59.090 34.337,58.937 34.900,58.894 35.083 C 58.833 35.346,59.124 35.646,60.267 36.500 C 61.065 37.096,61.912 37.729,62.150 37.906 C 62.389 38.084,64.168 39.412,66.104 40.858 C 69.500 43.393,69.642 43.480,70.116 43.301 L 70.607 43.116 71.064 38.016 C 71.315 35.212,71.557 32.721,71.601 32.482 C 71.669 32.119,71.598 32.012,71.168 31.834 C 70.626 31.609,69.667 30.573,69.667 30.212 C 69.667 29.952,69.259 29.963,67.750 30.264 M75.081 31.190 C 74.677 31.606,74.177 31.921,73.728 32.041 C 73.029 32.228,73.014 32.247,72.921 33.074 C 72.869 33.538,72.791 34.217,72.748 34.583 C 72.127 39.876,71.916 43.167,72.198 43.167 C 72.306 43.167,72.558 43.320,72.758 43.507 L 73.121 43.848 73.935 43.364 C 74.849 42.820,76.184 42.056,79.000 40.464 C 86.148 36.422,85.856 36.604,85.761 36.252 C 85.712 36.068,85.670 35.502,85.669 34.995 L 85.667 34.073 83.875 33.436 C 82.890 33.086,81.258 32.514,80.250 32.165 C 79.242 31.815,77.811 31.305,77.070 31.029 L 75.723 30.529 75.081 31.190 M85.667 38.191 C 85.346 38.388,83.696 39.336,82.000 40.300 C 77.346 42.943,76.663 43.329,75.667 43.875 C 73.243 45.204,73.241 45.215,75.417 45.477 C 77.849 45.770,83.173 46.469,84.199 46.631 L 85.148 46.780 85.336 46.265 C 85.440 45.982,85.667 45.375,85.841 44.917 C 86.321 43.652,87.138 41.375,87.533 40.200 L 87.885 39.151 87.242 38.492 C 86.496 37.728,86.442 37.717,85.667 38.191 M91.310 39.413 C 91.266 39.456,90.752 39.513,90.168 39.538 L 89.107 39.583 88.490 41.333 C 88.151 42.296,87.565 43.940,87.187 44.986 C 86.809 46.033,86.523 46.912,86.551 46.940 C 86.579 46.968,88.173 47.181,90.093 47.412 C 92.013 47.643,93.794 47.869,94.051 47.914 C 94.457 47.985,94.550 47.921,94.753 47.435 C 94.882 47.126,95.181 46.643,95.418 46.362 L 95.849 45.850 95.449 45.217 C 95.229 44.868,94.344 43.402,93.483 41.959 C 92.064 39.581,91.639 39.083,91.310 39.413 M44.083 46.604 C 38.158 48.111,39.012 56.923,45.083 56.915 C 51.458 56.907,51.711 46.953,45.346 46.575 C 44.835 46.544,44.267 46.557,44.083 46.604 M73.307 47.038 L 72.965 47.518 74.782 51.217 C 75.782 53.252,76.858 55.462,77.175 56.130 L 77.750 57.343 78.333 57.217 C 78.654 57.149,79.505 57.090,80.223 57.088 L 81.530 57.083 81.913 56.000 C 82.123 55.404,82.580 54.129,82.927 53.167 C 84.149 49.782,84.636 48.249,84.527 48.134 C 84.403 48.004,82.261 47.676,78.167 47.159 C 76.654 46.968,75.019 46.755,74.533 46.685 C 73.685 46.563,73.634 46.577,73.307 47.038 M68.737 48.786 C 67.643 49.827,63.314 53.772,62.287 54.663 C 61.671 55.197,61.663 55.220,61.929 55.626 C 62.079 55.855,62.242 56.483,62.291 57.021 L 62.380 58.000 63.065 58.178 C 63.442 58.276,64.237 58.497,64.833 58.669 C 65.429 58.841,66.817 59.210,67.917 59.488 C 69.017 59.766,70.779 60.220,71.833 60.496 C 74.248 61.129,74.224 61.131,74.577 60.347 C 74.739 59.987,75.272 59.293,75.760 58.805 L 76.649 57.917 74.257 53.061 L 71.866 48.205 71.225 48.116 C 70.872 48.067,70.396 47.981,70.167 47.924 C 69.821 47.839,69.578 47.985,68.737 48.786 " stroke="none" fill="#048bd2" fill-rule="evenodd"></path><path id="path2" d="M80.417 5.086 C 77.209 5.680,74.293 6.594,71.813 7.780 L 70.543 8.388 71.121 8.966 C 71.439 9.284,71.771 9.749,71.859 10.001 C 72.044 10.532,71.415 10.421,81.750 11.740 C 83.583 11.974,85.608 12.244,86.250 12.340 C 88.992 12.749,88.809 12.754,88.990 12.277 C 90.526 8.237,96.150 9.588,96.167 14.000 C 96.170 14.688,96.227 15.166,96.294 15.063 C 96.454 14.818,97.719 14.252,98.667 14.000 C 99.079 13.890,99.492 13.743,99.583 13.672 C 99.675 13.601,100.039 13.450,100.391 13.337 C 100.744 13.223,101.231 13.026,101.474 12.899 C 101.718 12.773,102.033 12.668,102.175 12.668 C 102.317 12.667,102.505 12.601,102.592 12.521 C 102.679 12.440,103.275 12.205,103.917 11.998 C 104.558 11.792,105.158 11.564,105.250 11.493 C 105.342 11.421,106.129 11.122,107.000 10.827 C 107.871 10.532,108.865 10.149,109.208 9.975 C 109.552 9.802,109.833 9.728,109.833 9.811 C 109.833 9.893,109.994 10.003,110.191 10.055 C 110.387 10.106,110.481 10.092,110.399 10.023 C 110.012 9.699,109.013 9.000,108.936 9.000 C 108.889 9.000,108.655 8.819,108.417 8.598 C 108.178 8.377,107.593 8.104,107.116 7.993 C 106.640 7.881,106.168 7.725,106.068 7.647 C 105.969 7.568,104.581 7.271,102.985 6.986 C 101.389 6.701,99.746 6.399,99.333 6.315 C 98.102 6.064,93.073 5.341,90.750 5.080 C 88.062 4.779,82.054 4.782,80.417 5.086 M65.915 11.208 C 60.993 14.853,57.240 19.628,55.170 24.881 C 54.731 25.995,54.686 25.882,55.737 26.295 L 56.556 26.617 57.736 25.097 C 58.385 24.261,59.142 23.289,59.417 22.937 C 59.692 22.584,60.179 21.938,60.500 21.500 C 61.277 20.440,62.032 19.470,62.306 19.182 C 62.429 19.052,62.709 18.677,62.928 18.348 C 63.147 18.019,63.721 17.250,64.205 16.639 C 67.140 12.928,67.526 12.360,67.343 12.019 C 67.246 11.836,67.109 11.413,67.039 11.078 L 66.913 10.469 65.915 11.208 M71.667 12.043 C 71.667 12.159,72.275 12.965,73.019 13.835 C 73.763 14.705,74.690 15.792,75.080 16.250 C 75.470 16.708,76.530 17.953,77.436 19.016 C 78.342 20.079,79.254 21.166,79.463 21.433 C 79.672 21.699,79.772 21.765,79.686 21.579 C 79.549 21.285,79.617 21.208,80.223 20.971 C 80.604 20.822,81.592 20.436,82.417 20.113 C 83.242 19.791,84.104 19.475,84.333 19.411 C 84.563 19.348,84.975 19.197,85.250 19.076 C 85.983 18.754,87.820 18.063,88.558 17.831 C 88.910 17.721,89.394 17.529,89.632 17.405 C 89.912 17.260,90.133 17.237,90.257 17.339 C 90.803 17.792,90.534 17.210,89.909 16.584 C 89.391 16.066,89.107 15.596,88.916 14.938 L 88.648 14.018 87.866 13.922 C 87.435 13.870,86.708 13.749,86.250 13.654 C 85.792 13.560,83.542 13.255,81.250 12.977 C 78.958 12.699,76.896 12.443,76.667 12.408 C 73.573 11.933,72.825 11.835,72.292 11.834 C 71.900 11.834,71.667 11.912,71.667 12.043 M68.333 13.295 C 68.333 13.379,68.142 13.666,67.908 13.932 C 67.524 14.370,66.580 15.593,65.612 16.909 C 65.413 17.179,64.949 17.779,64.580 18.242 C 64.212 18.705,63.762 19.281,63.580 19.522 C 63.399 19.763,62.462 20.989,61.500 22.246 C 60.538 23.504,59.525 24.851,59.250 25.239 C 58.975 25.628,58.617 26.077,58.454 26.239 C 57.607 27.079,57.594 27.420,58.368 28.606 C 58.761 29.209,59.063 29.775,59.038 29.863 C 59.012 29.952,59.063 29.980,59.151 29.926 C 59.247 29.867,59.219 29.651,59.079 29.382 L 58.848 28.936 60.132 28.534 C 60.839 28.312,61.497 28.066,61.596 27.986 C 61.695 27.906,62.670 27.532,63.763 27.156 C 64.856 26.779,65.825 26.414,65.917 26.344 C 66.008 26.274,66.496 26.091,67.000 25.936 C 67.504 25.781,68.067 25.584,68.250 25.498 C 69.430 24.948,70.899 24.513,71.077 24.662 C 71.274 24.825,71.119 23.960,69.766 17.333 C 68.924 13.210,68.938 13.259,68.618 13.197 C 68.462 13.167,68.333 13.211,68.333 13.295 M70.248 13.625 C 70.313 13.877,70.618 15.379,70.925 16.962 C 71.233 18.545,71.524 19.904,71.572 19.981 C 71.619 20.058,71.851 21.125,72.087 22.352 C 72.643 25.243,72.591 25.110,73.213 25.233 C 74.761 25.539,76.000 27.014,76.000 28.551 L 76.000 29.263 77.375 29.738 C 78.131 30.000,79.500 30.466,80.417 30.773 C 81.333 31.080,82.202 31.400,82.346 31.483 C 83.424 32.101,86.218 32.827,86.433 32.544 C 86.790 32.073,86.736 31.962,85.327 30.316 C 84.591 29.455,83.709 28.415,83.369 28.005 C 83.029 27.595,82.483 26.957,82.156 26.588 C 81.829 26.219,81.229 25.502,80.822 24.996 C 80.079 24.070,75.706 18.930,72.917 15.702 C 72.092 14.748,71.304 13.787,71.167 13.567 C 70.790 12.965,70.090 13.009,70.248 13.625 M95.500 16.274 C 95.500 16.364,95.744 16.658,96.042 16.927 L 96.583 17.417 96.083 16.834 C 95.808 16.514,95.565 16.220,95.542 16.181 C 95.519 16.143,95.500 16.185,95.500 16.274 M36.041 18.848 C 35.330 19.060,34.662 20.094,34.679 20.955 C 34.721 23.147,37.544 23.968,38.673 22.117 C 39.766 20.325,38.086 18.238,36.041 18.848 M39.348 29.779 C 36.299 30.421,35.255 34.890,37.649 37.049 C 40.716 39.814,45.331 36.448,44.000 32.416 C 43.427 30.680,41.162 29.396,39.348 29.779 M98.802 30.218 C 98.373 30.510,97.810 30.879,97.552 31.037 C 94.634 32.824,94.252 33.104,94.305 33.422 C 94.631 35.367,94.269 37.066,93.306 38.107 C 92.924 38.520,92.925 38.524,94.881 41.842 C 96.740 44.997,96.881 45.190,97.250 45.079 C 97.433 45.024,97.900 44.936,98.287 44.885 C 98.734 44.825,99.020 44.692,99.071 44.520 C 99.116 44.372,99.336 43.462,99.562 42.500 C 99.788 41.537,100.097 40.300,100.249 39.750 C 100.401 39.200,100.665 38.150,100.835 37.417 C 101.006 36.683,101.368 35.146,101.640 34.000 C 101.911 32.854,102.122 31.910,102.109 31.901 C 101.397 31.470,100.189 30.437,100.014 30.109 C 99.724 29.568,99.759 29.565,98.802 30.218 M167.553 32.333 C 167.553 32.929,167.584 33.173,167.621 32.875 C 167.658 32.577,167.658 32.090,167.621 31.792 C 167.584 31.494,167.553 31.738,167.553 32.333 M57.333 37.010 C 56.212 37.972,53.903 38.785,52.978 38.543 C 52.680 38.465,52.653 38.517,52.730 39.019 C 52.778 39.329,52.864 40.258,52.920 41.083 C 53.133 44.181,55.216 52.314,56.092 53.469 C 56.114 53.497,56.582 53.427,57.133 53.313 C 58.313 53.070,59.701 53.300,60.410 53.858 L 60.840 54.196 61.461 53.660 C 61.803 53.365,62.833 52.433,63.750 51.589 C 64.667 50.745,65.829 49.691,66.333 49.247 C 66.837 48.802,67.635 48.067,68.106 47.614 L 68.961 46.789 68.927 45.630 C 68.893 44.471,68.893 44.470,68.216 44.027 C 67.844 43.783,66.949 43.133,66.228 42.583 C 65.507 42.033,64.757 41.471,64.560 41.333 C 64.364 41.196,63.501 40.553,62.643 39.905 C 57.410 35.953,58.116 36.338,57.333 37.010 M85.776 48.958 C 85.626 49.302,84.870 51.383,84.097 53.583 L 82.693 57.583 83.051 57.833 C 83.248 57.971,83.653 58.296,83.952 58.556 C 84.552 59.079,84.581 59.079,85.269 58.538 C 85.991 57.970,90.200 54.787,90.609 54.500 C 91.247 54.052,94.242 51.757,94.547 51.483 C 94.788 51.266,94.811 51.131,94.672 50.764 C 94.577 50.515,94.500 50.127,94.500 49.902 C 94.500 49.319,94.136 49.222,90.190 48.748 C 85.803 48.221,86.106 48.207,85.776 48.958 M32.698 53.392 C 31.324 54.155,31.323 56.555,32.697 57.266 C 34.641 58.271,36.622 56.175,35.599 54.197 C 35.121 53.272,33.649 52.864,32.698 53.392 M59.705 65.667 C 59.705 65.987,59.740 66.119,59.782 65.958 C 59.823 65.798,59.823 65.535,59.782 65.375 C 59.740 65.215,59.705 65.346,59.705 65.667 M59.705 67.000 C 59.705 67.321,59.740 67.452,59.782 67.292 C 59.823 67.131,59.823 66.869,59.782 66.708 C 59.740 66.548,59.705 66.679,59.705 67.000 " stroke="none" fill="#044c94" fill-rule="evenodd"></path><path id="path3" d="M52.296 12.759 C 50.807 13.735,50.691 15.922,52.064 17.127 C 53.821 18.670,56.333 17.429,56.333 15.018 C 56.333 12.879,54.057 11.606,52.296 12.759 M27.337 22.157 C 25.465 22.808,24.410 24.873,25.026 26.683 C 25.788 28.925,28.500 29.885,30.363 28.573 C 33.634 26.269,31.081 20.857,27.337 22.157 M52.087 28.600 C 50.672 29.118,49.677 30.571,49.670 32.130 C 49.650 36.914,56.566 37.191,56.807 32.416 C 56.949 29.594,54.587 27.684,52.087 28.600 M19.460 29.751 C 18.139 30.496,18.156 32.891,19.488 33.640 C 21.621 34.838,23.733 32.123,22.120 30.257 C 21.475 29.510,20.288 29.285,19.460 29.751 M28.312 33.311 C 27.438 33.865,27.078 34.567,27.095 35.683 C 27.136 38.412,30.693 39.361,31.967 36.982 C 33.311 34.474,30.666 31.818,28.312 33.311 M46.072 40.384 C 45.394 40.967,45.354 42.343,46.000 42.839 C 47.233 43.786,48.921 42.705,48.587 41.183 C 48.347 40.092,46.934 39.643,46.072 40.384 M25.686 41.250 C 22.929 42.110,22.523 46.195,25.043 47.732 C 26.213 48.447,27.180 48.488,28.333 47.872 C 32.239 45.788,29.900 39.936,25.686 41.250 M35.670 42.625 C 34.578 43.174,33.991 44.562,34.326 45.805 C 34.943 48.097,38.058 48.442,39.125 46.336 C 40.352 43.915,38.041 41.434,35.670 42.625 M40.772 60.512 C 39.649 61.396,40.576 63.497,41.991 63.272 C 43.874 62.973,43.759 60.167,41.863 60.167 C 41.456 60.167,41.047 60.296,40.772 60.512 " stroke="none" fill="#e29622" fill-rule="evenodd"></path><path id="path4" d="M44.306 18.494 C 39.424 20.353,40.458 27.420,45.683 27.903 C 47.463 28.068,49.427 26.680,50.159 24.742 C 51.586 20.961,47.968 17.100,44.306 18.494 M102.833 24.959 C 101.266 25.742,101.133 28.149,102.602 29.156 C 104.210 30.258,106.472 28.926,106.292 26.982 C 106.124 25.181,104.404 24.174,102.833 24.959 M50.667 58.290 C 48.820 59.497,48.185 61.296,48.986 63.051 C 50.878 67.198,56.959 64.582,55.425 60.281 C 54.775 58.459,52.112 57.345,50.667 58.290 M78.395 61.561 C 76.564 63.393,78.169 66.339,80.636 65.675 C 82.722 65.113,82.910 61.905,80.906 61.068 C 79.846 60.625,79.205 60.751,78.395 61.561 M120.500 62.845 C 119.721 63.111,118.858 63.440,118.583 63.577 C 118.308 63.714,117.408 64.060,116.583 64.346 C 115.758 64.631,114.858 64.968,114.583 65.093 C 114.308 65.218,113.446 65.550,112.667 65.830 C 111.888 66.110,111.100 66.413,110.917 66.502 C 110.506 66.702,106.994 67.999,104.757 68.778 C 103.845 69.095,102.907 69.458,102.674 69.584 C 102.441 69.710,101.725 69.980,101.083 70.184 C 100.442 70.387,99.692 70.677,99.417 70.827 C 99.142 70.977,98.579 71.197,98.167 71.316 C 97.754 71.435,97.192 71.633,96.917 71.758 C 96.127 72.115,93.355 73.152,92.167 73.536 C 91.571 73.729,90.933 73.978,90.750 74.091 C 90.567 74.203,89.779 74.501,89.000 74.753 C 88.221 75.005,87.498 75.278,87.394 75.360 C 87.290 75.442,86.457 75.761,85.542 76.069 C 84.628 76.377,83.626 76.747,83.315 76.891 C 83.004 77.035,82.000 77.419,81.083 77.745 C 80.167 78.070,79.267 78.401,79.083 78.481 C 78.168 78.877,77.636 79.079,76.355 79.516 C 75.588 79.778,74.875 80.060,74.772 80.143 C 74.668 80.226,73.908 80.503,73.083 80.758 C 72.258 81.014,71.471 81.316,71.333 81.430 C 71.196 81.544,70.633 81.765,70.083 81.921 C 69.208 82.170,68.687 82.368,67.250 82.997 C 67.067 83.078,66.617 83.233,66.250 83.343 C 65.883 83.453,65.508 83.599,65.417 83.666 C 65.325 83.734,64.837 83.922,64.333 84.084 C 63.829 84.247,63.117 84.513,62.750 84.676 C 62.383 84.839,61.596 85.135,61.000 85.333 C 60.404 85.532,59.617 85.828,59.250 85.991 C 58.883 86.153,58.096 86.448,57.500 86.646 C 56.904 86.843,56.342 87.060,56.250 87.128 C 56.043 87.279,55.982 87.864,56.185 87.738 C 56.267 87.688,56.334 87.783,56.334 87.948 C 56.340 89.467,59.078 91.959,61.333 92.497 C 61.848 92.620,66.970 92.662,77.650 92.630 L 93.217 92.583 93.827 90.750 C 95.241 86.494,96.614 85.438,101.417 84.911 C 101.600 84.891,103.475 84.671,105.583 84.422 C 107.692 84.173,109.679 83.941,110.000 83.907 C 110.321 83.873,110.921 83.771,111.333 83.681 C 111.746 83.592,112.533 83.473,113.083 83.418 C 119.625 82.764,122.254 79.419,120.204 74.362 C 119.612 72.902,119.615 71.993,120.214 70.917 C 121.750 68.156,122.061 66.772,121.294 66.106 C 120.453 65.377,120.422 65.202,121.063 64.823 C 121.395 64.628,121.624 64.400,121.573 64.317 C 121.522 64.234,121.560 64.167,121.657 64.167 C 121.754 64.167,121.833 64.021,121.833 63.843 C 121.833 63.665,121.912 63.471,122.008 63.412 C 122.129 63.337,122.126 63.236,122.000 63.083 C 121.874 62.931,121.871 62.830,121.992 62.755 C 122.192 62.631,122.229 62.326,122.042 62.348 C 121.973 62.356,121.279 62.579,120.500 62.845 " stroke="none" fill="#04acec" fill-rule="evenodd"></path></g></svg>